<svg width="23" height="23" viewBox="0 0 23 23" fill="none" xmlns="http://www.w3.org/2000/svg">
<path d="M6.525 0H15.975C19.575 0 22.5 2.925 22.5 6.525V15.975C22.5 17.7055 21.8125 19.3652 20.5889 20.5889C19.3652 21.8125 17.7055 22.5 15.975 22.5H6.525C2.925 22.5 0 19.575 0 15.975V6.525C0 4.79446 0.687454 3.1348 1.91113 1.91113C3.1348 0.687454 4.79446 0 6.525 0ZM6.3 2.25C5.22587 2.25 4.19574 2.6767 3.43622 3.43622C2.6767 4.19574 2.25 5.22587 2.25 6.3V16.2C2.25 18.4387 4.06125 20.25 6.3 20.25H16.2C17.2741 20.25 18.3043 19.8233 19.0638 19.0638C19.8233 18.3043 20.25 17.2741 20.25 16.2V6.3C20.25 4.06125 18.4387 2.25 16.2 2.25H6.3ZM17.1562 3.9375C17.5292 3.9375 17.8869 4.08566 18.1506 4.34938C18.4143 4.6131 18.5625 4.97079 18.5625 5.34375C18.5625 5.71671 18.4143 6.0744 18.1506 6.33812C17.8869 6.60184 17.5292 6.75 17.1562 6.75C16.7833 6.75 16.4256 6.60184 16.1619 6.33812C15.8982 6.0744 15.75 5.71671 15.75 5.34375C15.75 4.97079 15.8982 4.6131 16.1619 4.34938C16.4256 4.08566 16.7833 3.9375 17.1562 3.9375ZM11.25 5.625C12.7418 5.625 14.1726 6.21763 15.2275 7.27252C16.2824 8.32742 16.875 9.75816 16.875 11.25C16.875 12.7418 16.2824 14.1726 15.2275 15.2275C14.1726 16.2824 12.7418 16.875 11.25 16.875C9.75816 16.875 8.32742 16.2824 7.27252 15.2275C6.21763 14.1726 5.625 12.7418 5.625 11.25C5.625 9.75816 6.21763 8.32742 7.27252 7.27252C8.32742 6.21763 9.75816 5.625 11.25 5.625ZM11.25 7.875C10.3549 7.875 9.49645 8.23058 8.86351 8.86351C8.23058 9.49645 7.875 10.3549 7.875 11.25C7.875 12.1451 8.23058 13.0036 8.86351 13.6365C9.49645 14.2694 10.3549 14.625 11.25 14.625C12.1451 14.625 13.0036 14.2694 13.6365 13.6365C14.2694 13.0036 14.625 12.1451 14.625 11.25C14.625 10.3549 14.2694 9.49645 13.6365 8.86351C13.0036 8.23058 12.1451 7.875 11.25 7.875Z" fill="white"/>
</svg>
